<?xml version="1.0" encoding="iso-8859-1"?>
<!-- Generator: Adobe Illustrator 19.0.0, SVG Export Plug-In . SVG Version: 6.00 Build 0)  -->
<svg version="1.1" id="Capa_1" xmlns="http://www.w3.org/2000/svg" xmlns:xlink="http://www.w3.org/1999/xlink" x="0px" y="0px"
	 viewBox="0 0 60 60" style="enable-background:new 0 0 60 60;" xml:space="preserve">
<g>
	<g>
		<path d="M11,12c0.6,0,1-0.4,1-1V2h34v10h2V1c0-0.6-0.4-1-1-1H11l0,0c-0.1,0-0.2,0-0.3,0.1h-0.1c-0.1,0.1-0.2,0.1-0.3,0.2l-10,10
			c-0.1,0.1-0.1,0.2-0.2,0.3v0.1C0.1,10.8,0,10.9,0,11l0,0v29h2c0,0,0-26.8,0-28L11,12L11,12z M10,10H3.4l3.3-3.3L10,3.4L10,10
			L10,10z"/>
		<path d="M59,26H17c-0.6,0-1,0.4-1,1v16h2v-7h40v24h2V27C60,26.4,59.6,26,59,26z M18,34v-6h40v6H18z"/>
		<rect x="16" y="57" width="2" height="3"/>
		<rect x="20" y="30" width="2" height="2"/>
		<rect x="24" y="30" width="2" height="2"/>
		<rect x="28" y="30" width="2" height="2"/>
		<rect y="42" width="2" height="2"/>
		<rect y="46" width="2" height="2"/>
		<rect y="50" width="2" height="2"/>
		<rect y="54" width="2" height="2"/>
		<rect y="58" width="2" height="2"/>
		<rect x="46" y="14" width="2" height="2"/>
		<rect x="46" y="18" width="2" height="2"/>
		<rect x="46" y="22" width="2" height="2"/>
		<path d="M29.7,50.3l-1.4,1.4l1.3,1.3H8v2h21.6l-1.3,1.3l1.4,1.4l3-3c0.4-0.4,0.4-1,0-1.4L29.7,50.3z"/>
		<path d="M12.7,43.7l-1.4-1.4l-3,3c-0.4,0.4-0.4,1,0,1.4l3,3l1.4-1.4L11.4,47H33v-2H11.4L12.7,43.7z"/>
		<rect x="21" y="39" width="34" height="2"/>
		<rect x="37" y="45" width="10" height="2"/>
		<rect x="37" y="53" width="18" height="2"/>
		<rect x="15" y="5" width="10" height="2"/>
		<rect x="15" y="10" width="16" height="2"/>
		<rect x="8" y="17" width="32" height="2"/>
		<rect x="8" y="21" width="10" height="2"/>
	</g>
</g>
<g>
</g>
<g>
</g>
<g>
</g>
<g>
</g>
<g>
</g>
<g>
</g>
<g>
</g>
<g>
</g>
<g>
</g>
<g>
</g>
<g>
</g>
<g>
</g>
<g>
</g>
<g>
</g>
<g>
</g>
</svg>
